<svg width="51" height="51" viewBox="0 0 51 51" fill="none" xmlns="http://www.w3.org/2000/svg">
<path d="M47.504 25.726C47.504 37.9297 37.6106 47.8342 25.3958 47.8342C13.181 47.8342 3.2876 37.9297 3.2876 25.726C3.2876 13.5112 13.181 3.6178 25.3958 3.6178C37.6106 3.6178 47.504 13.5112 47.504 25.726Z" fill="#283544"/>
<path d="M35.7585 20.1316C35.6379 20.202 32.766 21.6873 32.766 24.9804C32.9013 28.736 36.3902 30.0531 36.45 30.0531C36.3902 30.1234 35.9233 31.8472 34.5403 33.6542C33.4427 35.2107 32.2245 36.7801 30.3747 36.7801C28.615 36.7801 27.9833 35.7427 25.953 35.7427C23.7726 35.7427 23.1556 36.7801 21.4862 36.7801C19.6363 36.7801 18.3279 35.1267 17.1705 33.5847C15.6669 31.5666 14.3888 28.3996 14.3437 25.3588C14.3133 23.7474 14.6448 22.1634 15.4864 20.818C16.6742 18.9398 18.7948 17.6647 21.1106 17.6227C22.8849 17.567 24.4641 18.7579 25.5469 18.7579C26.5847 18.7579 28.5248 17.6227 30.7199 17.6227C31.6674 17.6236 34.1941 17.8896 35.7585 20.1316ZM25.3969 17.301C25.081 15.8294 25.953 14.3579 26.7651 13.4192C27.8029 12.284 29.4419 11.5135 30.8553 11.5135C30.9455 12.9851 30.3737 14.4283 29.3516 15.4794C28.4345 16.6146 26.8554 17.4692 25.3969 17.301Z" fill="white"/>
</svg>
