<svg width="30" height="30" viewBox="0 0 30 30" fill="none" xmlns="http://www.w3.org/2000/svg">
<path fill-rule="evenodd" clip-rule="evenodd" d="M6.42708 1.92949C0.873078 3.62915 -1.10722 9.37319 0.587245 14.3987C3.31292 22.4574 15.0021 28.5 15.0021 28.5C15.0021 28.5 26.7781 22.3644 29.4153 14.3987C31.1082 9.37319 29.1153 3.62915 23.5613 1.92949C20.6429 1.03991 17.2998 1.60996 15.0021 3.29762C12.5733 1.56196 9.34858 1.03391 6.42708 1.92949ZM20.5431 6.77339C20.1418 6.67069 19.7333 6.91273 19.6306 7.31401C19.5279 7.71529 19.7699 8.12385 20.1712 8.22655C22.3511 8.78447 23.7341 10.2764 23.8968 11.8622C23.939 12.2743 24.3073 12.574 24.7194 12.5318C25.1314 12.4895 25.4312 12.1212 25.3889 11.7092C25.1447 9.32779 23.1475 7.43996 20.5431 6.77339Z" fill="#FF4040"/>
</svg>
