<svg width="21" height="19" viewBox="0 0 21 19" fill="none" xmlns="http://www.w3.org/2000/svg">
<path d="M10.2571 5.98715L13.2234 8.95343L13.2375 8.79806C13.2375 7.23956 11.971 5.97302 10.4125 5.97302L10.2571 5.98715Z" fill="#A7A3FF"/>
<path d="M10.4124 4.08978C13.0115 4.08978 15.1208 6.19915 15.1208 8.79818C15.1208 9.40556 14.9984 9.98469 14.7866 10.5167L17.541 13.2711C18.9629 12.0846 20.0835 10.5497 20.7756 8.79818C19.1418 4.66423 15.1256 1.7356 10.4125 1.7356C9.09412 1.7356 7.8323 1.971 6.65991 2.39476L8.69394 4.42406C9.22593 4.2169 9.80506 4.08978 10.4124 4.08978Z" fill="#A7A3FF"/>
<path d="M0.995618 1.52364L3.14264 3.67066L3.57112 4.09914C2.01735 5.31391 0.788464 6.9289 0.0539551 8.7981C1.68307 12.9321 5.70402 15.8607 10.4124 15.8607C11.872 15.8607 13.2657 15.5782 14.5417 15.065L14.9419 15.4652L17.6869 18.2149L18.8876 17.0189L2.19626 0.322998L0.995618 1.52364ZM6.20313 6.72642L7.65802 8.18132C7.61564 8.38379 7.58739 8.58622 7.58739 8.7981C7.58739 10.3566 8.85393 11.6231 10.4124 11.6231C10.6243 11.6231 10.8268 11.5949 11.0245 11.5525L12.4794 13.0074C11.8532 13.3182 11.1564 13.5065 10.4124 13.5065C7.8134 13.5065 5.70402 11.3971 5.70402 8.7981C5.70402 8.05419 5.89237 7.35733 6.20313 6.72642Z" fill="#A7A3FF"/>
</svg>
