<svg width="52" height="51" viewBox="0 0 52 51" fill="none" xmlns="http://www.w3.org/2000/svg">
<path d="M48.2952 26.217C48.2952 24.3992 48.1447 23.0727 47.8189 21.6971H26.6382V29.9017H39.0708C38.8202 31.9406 37.4667 35.0112 34.4587 37.0745L34.4165 37.3492L41.1135 42.4335L41.5775 42.4789C45.8386 38.6222 48.2952 32.9477 48.2952 26.217Z" fill="#4285F4"/>
<path d="M26.6367 47.8343C32.7276 47.8343 37.841 45.869 41.5759 42.4791L34.4572 37.0747C32.5522 38.3767 29.9954 39.2855 26.6367 39.2855C20.671 39.2855 15.6078 35.429 13.8028 30.0984L13.5383 30.1204L6.57471 35.4019L6.48364 35.65C10.1934 42.872 17.8134 47.8343 26.6367 47.8343Z" fill="#34A853"/>
<path d="M13.8044 30.0985C13.3281 28.7229 13.0525 27.2489 13.0525 25.726C13.0525 24.2029 13.3281 22.729 13.7793 21.3534L13.7667 21.0605L6.71582 15.6942L6.48513 15.8017C4.95618 18.7987 4.07886 22.1641 4.07886 25.726C4.07886 29.2878 4.95618 32.6531 6.48513 35.65L13.8044 30.0985Z" fill="#FBBC05"/>
<path d="M26.6368 12.1663C30.8729 12.1663 33.7304 13.9595 35.3597 15.458L41.7265 9.36593C37.8163 5.80406 32.7278 3.6178 26.6368 3.6178C17.8135 3.6178 10.1934 8.57983 6.48364 15.8018L13.7778 21.3535C15.6078 16.023 20.6711 12.1663 26.6368 12.1663Z" fill="#EB4335"/>
</svg>
